<svg xmlns="http://www.w3.org/2000/svg" viewBox="0 0 512 512" width="100%" height="100%">
  <rect width="512" height="512" rx="100" fill="#1e2530"/>
  <g stroke-linecap="round" stroke-linejoin="round">
    <path d="M 80 290 Q 256 460 432 290" fill="none" stroke="#00a859" stroke-width="24"/>
    <path d="M 140 330 L 140 210 L 220 160 L 220 350" fill="none" stroke="#c0c0c0" stroke-width="16"/>
    <rect x="160" y="230" width="20" height="20" rx="3" fill="#00a859"/>
    <rect x="160" y="270" width="20" height="20" rx="3" fill="#00a859"/>
    <path d="M 230 370 L 230 110 L 310 160 L 310 370" fill="none" stroke="#e0e0e0" stroke-width="20"/>
    <rect x="255" y="160" width="24" height="24" rx="4" fill="#00a859"/>
    <rect x="255" y="210" width="24" height="24" rx="4" fill="#00a859"/>
    <rect x="255" y="260" width="24" height="24" rx="4" fill="#00a859"/>
    <path d="M 320 350 L 320 220 L 390 180 L 390 310" fill="none" stroke="#c0c0c0" stroke-width="16"/>
    <rect x="345" y="240" width="20" height="20" rx="3" fill="#00a859"/>
    <rect x="345" y="270" width="20" height="20" rx="3" fill="#00a859"/>
  </g>
</svg>